<svg xmlns="http://www.w3.org/2000/svg" viewBox="0 0 40 37.14"><path class="a" fill="#891225" d="M35.42 3.04h-2.45V.94a.92.92 0 1 0-1.83 0v2.1H9.35V.94a.92.92 0 1 0-1.83 0v2.1H4.58A4.63 4.63 0 0 0 0 7.7v24.78a4.63 4.63 0 0 0 4.58 4.66h30.85A4.63 4.63 0 0 0 40 32.48V7.7a4.63 4.63 0 0 0-4.58-4.66zm2.75 29.44a2.78 2.78 0 0 1-2.75 2.8H4.58a2.78 2.78 0 0 1-2.74-2.8V7.7a2.78 2.78 0 0 1 2.74-2.8h2.95v1.6a.92.92 0 1 0 1.83 0V4.9h21.8v1.6a.92.92 0 1 0 1.82 0V4.9h2.45a2.78 2.78 0 0 1 2.75 2.8zm0 0"/><path class="a" fill="#891225" d="M10.15 15.79h10.7a.65.65 0 1 0 0-1.31h-10.7a.65.65 0 1 0 0 1.3zM33.3 24.6H6.7c-.6 0-1.08.3-1.08.66s.48.65 1.08.65h26.6c.6 0 1.09-.3 1.09-.65s-.49-.66-1.09-.66zm0 0"/></svg>
